{"title":"Happythankyoumoreplease .2011.DvDRip.x264.Feel-Free","uid":6103938,"size":1389852861,"categoryP":"video","categoryS":"movies","magnet":"?xt=urn:btih:24297a13d6bf8cda8b0fe6adfbb86a861131e708&amp;dn=Happythankyoumoreplease+.2011.DvDRip.x264.Feel-Free&amp;tr=udp%3A%2F%2Ftracker.openbittorrent.com%3A80&amp;tr=udp%3A%2F%2Fopen.demonii.com%3A1337&amp;tr=udp%3A%2F%2Ftracker.coppersurfer.tk%3A6969&amp;tr=udp%3A%2F%2Fexodus.desync.com%3A6969","seeders":2,"leechers":1,"uploader":"SaM","files":11,"time":1295088890,"description":"Genre:Comedy | Romance \nLanguage:English\nIMDb:http://www.imdb.com/title/tt1481572/\nSource:DVD\n\n\nFormat                           : Matroska\nFile size                        : 1.29 GiB\nDuration                         : 1h 34mn\nOverall bit rate                 : 1 960 Kbps\n\n\nVideo\nFormat settings, CABAC           : Yes\nFormat settings, ReFrames        : 4 frames\nCodec ID                         : V_MPEG4/ISO/AVC\nDuration                         : 1h 34mn\nBit rate                         : 1 500 Kbps\nWidth                            : 720 pixels\nHeight                           : 384 pixels\nDisplay aspect ratio             : 1.875\nFrame rate mode                  : Variable\nFrame rate                       : 25.000 fps\nColor space                      : YUV\nChroma subsampling               : 4:2:0\nBit depth                        : 8 bits\nScan type                        : Progressive\nBits/(Pixel*Frame)               : 0.217\nStream size                      : 994 MiB (75%)\nWriting library                  : x264\n\n\nAudio\nID                               : 2\nFormat                           : AC-3\nFormat/Info                      : Audio Coding 3\nMode extension                   : CM (complete main)\nCodec ID                         : A_AC3\nDuration                         : 1h 34mn\nBit rate mode                    : Constant\nBit rate                         : 448 Kbps\nChannel(s)                       : 6 channels\nChannel positions                : Front: L C R, Side: L R, LFE\nSampling rate                    : 48.0 KHz\nBit depth                        : 16 bits\nVideo delay                      : -1mn 5s\nStream size                      : 303 MiB (23%)\nLanguage                         : English\n\n    \nPlot:\n  Captures a generational moment - young people on the cusp of truly growing up, tiring of their reflexive cynicism, each in their own ways struggling to connect and define what it means to love and be loved. \n\nTRAILER:http://www.imdb.com/video/imdb/vi2767231769/\n\n &lt;a href=&quot;\nhttp://shareimage.org/images/0ck5merzvvxwq7qkrn3.png&quot; rel=&quot;nofollow&quot; target=&quot;_NEW&quot;&gt;\nhttp://shareimage.org/images/0ck5merzvvxwq7qkrn3.png&lt;/a&gt;\n &lt;a href=&quot;\nhttp://shareimage.org/images/24xjsphs0xln3fee6vij.png&quot; rel=&quot;nofollow&quot; target=&quot;_NEW&quot;&gt;\nhttp://shareimage.org/images/24xjsphs0xln3fee6vij.png&lt;/a&gt;\n &lt;a href=&quot;\nhttp://shareimage.org/images/he07wg49t8hy7lorrdln.png&quot; rel=&quot;nofollow&quot; target=&quot;_NEW&quot;&gt;\nhttp://shareimage.org/images/he07wg49t8hy7lorrdln.png&lt;/a&gt;\n &lt;a href=&quot;\nhttp://shareimage.org/images/vyiqqdze4p85awwsey5.png&quot; rel=&quot;nofollow&quot; target=&quot;_NEW&quot;&gt;\nhttp://shareimage.org/images/vyiqqdze4p85awwsey5.png&lt;/a&gt;\n &lt;a href=&quot;\nhttp://shareimage.org/images/5yyknusz8d5eicoow63.png&quot; rel=&quot;nofollow&quot; target=&quot;_NEW&quot;&gt;\nhttp://shareimage.org/images/5yyknusz8d5eicoow63.png&lt;/a&gt;\n\n &lt;a href=&quot;\nhttp://shareimage.org/images/n645bm9wqp3een5s5t.png&quot; rel=&quot;nofollow&quot; target=&quot;_NEW&quot;&gt;\nhttp://shareimage.org/images/n645bm9wqp3een5s5t.png&lt;/a&gt;\n\n\nGreets:\n\nINK,CRYS,IMAGINE,LKRG,FXG,3Li,FLAWL3SS,TA,ViSiON,LU,TheFalcon007,PrisM,Noir,WBZ,LAP,Rx,Kingdom,SAFCuk009+Fabreezy,HDLiTE,TWiZTED,ExtraTorrentRG.ELEKTRI4KA,MAGNAT,CM8\n                And to all the other p2p grps past and present \n \n\n\nMake sure its a real Feel-Free release @ extratorrent","torrent":{"xt":"urn:btih:24297a13d6bf8cda8b0fe6adfbb86a861131e708","amp;dn":"Happythankyoumoreplease+.2011.DvDRip.x264.Feel-Free","amp;tr":["udp%3A%2F%2Ftracker.openbittorrent.com%3A80","udp%3A%2F%2Fopen.demonii.com%3A1337","udp%3A%2F%2Ftracker.coppersurfer.tk%3A6969","udp%3A%2F%2Fexodus.desync.com%3A6969"],"infoHash":"24297a13d6bf8cda8b0fe6adfbb86a861131e708","infoHashBuffer":{"type":"Buffer","data":[36,41,122,19,214,191,140,218,139,15,230,173,251,184,106,134,17,49,231,8]},"announce":[],"urlList":[]}}